<svg class="sprite d-none" xmlns="http://www.w3.org/2000/svg">
    <symbol id="douleArrow" viewBox="0 0 448 512">
        <path d="M246.6 470.6c-12.5 12.5-32.8 12.5-45.3 0l-160-160c-12.5-12.5-12.5-32.8 0-45.3s32.8-12.5 45.3 0L224 402.7 361.4 265.4c12.5-12.5 32.8-12.5 45.3 0s12.5 32.8 0 45.3l-160 160zm160-352l-160 160c-12.5 12.5-32.8 12.5-45.3 0l-160-160c-12.5-12.5-12.5-32.8 0-45.3s32.8-12.5 45.3 0L224 210.7 361.4 73.4c12.5-12.5 32.8-12.5 45.3 0s12.5 32.8 0 45.3z"/>
    </symbol>
    <symbol id="bike" viewBox="0 -960 960 960">
        <path d="M620-740q-33 0-56.5-23.5T540-820q0-33 23.5-56.5T620-900q33 0 56.5 23.5T700-820q0 33-23.5 56.5T620-740ZM432-540l88 92v248h-80v-200L312-512q-14-12-19-25t-5-31q0-18 5.5-30.5T312-624l112-112q13-13 27.5-18.5T484-760q18 0 32.5 5.5T544-736l76 76q27 27 63 43.5t81 16.5v80q-63 0-114-22.5T560-604l-32-32-96 96Zm-232 60q85 0 142.5 57.5T400-280q0 85-57.5 142.5T200-80q-85 0-142.5-57.5T0-280q0-85 57.5-142.5T200-480Zm0 340q57 0 98.5-41.5T340-280q0-57-41.5-98.5T200-420q-57 0-98.5 41.5T60-280q0 57 41.5 98.5T200-140Zm560-340q85 0 142.5 57.5T960-280q0 85-57.5 142.5T760-80q-85 0-142.5-57.5T560-280q0-85 57.5-142.5T760-480Zm0 340q57 0 98.5-41.5T900-280q0-57-41.5-98.5T760-420q-57 0-98.5 41.5T620-280q0 57 41.5 98.5T760-140Z"/>
    </symbol>
    <symbol id="contactUs" viewBox="0 -960 960 960">
        <path d="M320-400h320v-22q0-44-44-71t-116-27q-72 0-116 27t-44 71v22Zm160-160q33 0 56.5-23.5T560-640q0-33-23.5-56.5T480-720q-33 0-56.5 23.5T400-640q0 33 23.5 56.5T480-560ZM80-80v-720q0-33 23.5-56.5T160-880h640q33 0 56.5 23.5T880-800v480q0 33-23.5 56.5T800-240H240L80-80Zm126-240h594v-480H160v525l46-45Zm-46 0v-480 480Z"/>
    </symbol>
    <symbol id="roundedArrow" viewBox="0 -960 960 960">
        <path d="M507-480 384-357l56 57 180-180-180-180-56 57 123 123ZM480-80q-83 0-156-31.5T197-197q-54-54-85.5-127T80-480q0-83 31.5-156T197-763q54-54 127-85.5T480-880q83 0 156 31.5T763-763q54 54 85.5 127T880-480q0 83-31.5 156T763-197q-54 54-127 85.5T480-80Zm0-80q134 0 227-93t93-227q0-134-93-227t-227-93q-134 0-227 93t-93 227q0 134 93 227t227 93Zm0-320Z"/>
    </symbol>
    <symbol id="file" viewBox="0 0 24 24">
        <path d="M20,8.94a1.31,1.31,0,0,0-.06-.27l0-.09a1.07,1.07,0,0,0-.19-.28h0l-6-6h0a1.07,1.07,0,0,0-.28-.19l-.09,0L13.06,2H7A3,3,0,0,0,4,5V19a3,3,0,0,0,3,3H17a3,3,0,0,0,3-3V9S20,9,20,8.94ZM14,5.41,16.59,8H14ZM18,19a1,1,0,0,1-1,1H7a1,1,0,0,1-1-1V5A1,1,0,0,1,7,4h5V9a1,1,0,0,0,1,1h5Z"/>
    </symbol>
    <symbol id="cloud" viewBox="0 -960 960 960">
        <path d="M260-160q-92 0-156-64T40-380q0-78 48.5-137.5T210-594q25-90 99-148t171-58q119 0 199.5 82.5T760-520q75 8 117.5 62T920-341q0 75-52.5 128T740-160H260Zm0-80h480q42 0 71-29t29-71q0-42-29-71t-71-29h-60v-80q0-83-58.5-141.5T480-720q-63 0-112 34.5T296-597q78 13 131 73.5T480-380h-80q0-58-41-99t-99-41q-58 0-99 41t-41 99q0 58 41 99t99 41Z"/>
    </symbol>
    <symbol id="call" viewBox="0 -960 960 960">
        <path d="M798-120q-125 0-247-54.5T329-329Q229-429 174.5-551T120-798q0-18 12-30t30-12h162q14 0 25 9.5t13 22.5l26 140q2 16-1 27t-11 19l-97 98q20 37 47.5 71.5T387-386q31 31 65 57.5t72 48.5l94-94q9-9 23.5-13.5T670-390l138 28q14 4 23 14.5t9 23.5v162q0 18-12 30t-30 12Z"/>
    </symbol>
    <symbol id="circle" viewBox="0 0 100 100">
        <circle 
            r="42" 
            cx="50" 
            cy="50"
            fill="none"
            stroke="#ffb700"
            stroke-width="8"
            stroke-dasharray="22 10"
            stroke-dashoffset="0">
        </circle>
        <circle 
            r="15"
            cx="50"
            cy="50"
            fill="#ffb700">
        </circle>
    </symbol>
    <symbol id="quote" viewBox="0 0 16 16">
        <path d="M12 12a1 1 0 0 0 1-1V8.558a1 1 0 0 0-1-1h-1.388c0-.351.021-.703.062-1.054.062-.372.166-.703.31-.992.145-.29.331-.517.559-.683.227-.186.516-.279.868-.279V3c-.579 0-1.085.124-1.52.372a3.322 3.322 0 0 0-1.085.992 4.92 4.92 0 0 0-.62 1.458A7.712 7.712 0 0 0 9 7.558V11a1 1 0 0 0 1 1h2Zm-6 0a1 1 0 0 0 1-1V8.558a1 1 0 0 0-1-1H4.612c0-.351.021-.703.062-1.054.062-.372.166-.703.31-.992.145-.29.331-.517.559-.683.227-.186.516-.279.868-.279V3c-.579 0-1.085.124-1.52.372a3.322 3.322 0 0 0-1.085.992 4.92 4.92 0 0 0-.62 1.458A7.712 7.712 0 0 0 3 7.558V11a1 1 0 0 0 1 1h2Z"/>
    </symbol>
</svg>